HIERARCHY
ROOT Hips
{
	OFFSET 0.000000 0.000000 0.000000
	CHANNELS 6 Xposition Yposition Zposition Xrotation Yrotation Zrotation
	JOINT LeftUpLeg_virtual
	{
		OFFSET 0.000000 0.000000 0.000000
		CHANNELS 3 Xrotation Yrotation Zrotation
		JOINT LeftUpLeg
		{
			OFFSET 15.427100 -6.655098 0.678600
			CHANNELS 3 Xrotation Yrotation Zrotation
			JOINT LeftLeg
			{
				OFFSET 4.081073 -39.591068 13.024000
				CHANNELS 3 Xrotation Yrotation Zrotation
				JOINT LeftFoot
				{
					OFFSET -4.081074 -37.707932 -15.979700
					CHANNELS 3 Xrotation Yrotation Zrotation
					JOINT LeftToeBase
					{
						OFFSET 5.346399 -15.068900 20.645000
						CHANNELS 3 Xrotation Yrotation Zrotation
						JOINT LeftToe_End
						{
							OFFSET 2.754700 0.931300 11.300900
							CHANNELS 3 Xrotation Yrotation Zrotation
							End Site
							{
								OFFSET 0 0 0
							}
						}
					}
				}
			}
		}
	}
	JOINT RightUpLeg_virtual
	{
		OFFSET 0.000000 0.000000 0.000000
		CHANNELS 3 Xrotation Yrotation Zrotation
		JOINT RightUpLeg
		{
			OFFSET -15.569500 -6.655098 0.678600
			CHANNELS 3 Xrotation Yrotation Zrotation
			JOINT RightLeg
			{
				OFFSET -4.081825 -39.591045 13.023800
				CHANNELS 3 Xrotation Yrotation Zrotation
				JOINT RightFoot
				{
					OFFSET 4.081824 -37.707954 -15.979600
					CHANNELS 3 Xrotation Yrotation Zrotation
					JOINT RightToeBase
					{
						OFFSET -5.346400 -15.068900 20.645000
						CHANNELS 3 Xrotation Yrotation Zrotation
						JOINT RightToe_End
						{
							OFFSET -2.754700 0.931300 11.300900
							CHANNELS 3 Xrotation Yrotation Zrotation
							End Site
							{
								OFFSET 0 0 0
							}
						}
					}
				}
			}
		}
	}
	JOINT Spine_virtual
	{
		OFFSET 0.000000 0.000000 0.000000
		CHANNELS 3 Xrotation Yrotation Zrotation
		JOINT Spine
		{
			OFFSET -0.279200 12.230698 -2.892100
			CHANNELS 3 Xrotation Yrotation Zrotation
			JOINT Spine1
			{
				OFFSET -0.232667 10.192268 -1.242267
				CHANNELS 3 Xrotation Yrotation Zrotation
				JOINT Spine1_split
				{
					OFFSET -0.232667 10.192268 -1.242267
					CHANNELS 3 Xrotation Yrotation Zrotation
					JOINT Spine2
					{
						OFFSET -0.232667 10.192268 -1.242267
						CHANNELS 3 Xrotation Yrotation Zrotation
						JOINT Neck_virtual
						{
							OFFSET 0.000000 0.000000 0.000000
							CHANNELS 3 Xrotation Yrotation Zrotation
							JOINT Neck
							{
								OFFSET -0.418800 17.814194 8.416900
								CHANNELS 3 Xrotation Yrotation Zrotation
								JOINT Head
								{
									OFFSET 0.000000 7.031097 3.806800
									CHANNELS 3 Xrotation Yrotation Zrotation
									JOINT HeadTop_End
									{
										OFFSET 0.000000 24.646606 12.978600
										CHANNELS 3 Xrotation Yrotation Zrotation
										End Site
										{
											OFFSET 0 0 0
										}
									}
								}
							}
						}
						JOINT LeftShoulder_virtual
						{
							OFFSET 0.000000 0.000000 0.000000
							CHANNELS 3 Xrotation Yrotation Zrotation
							JOINT LeftShoulder
							{
								OFFSET 8.476499 7.247704 -3.868750
								CHANNELS 3 Xrotation Yrotation Zrotation
								JOINT LeftShoulder_split
								{
									OFFSET 8.476499 7.247704 -3.868750
									CHANNELS 3 Xrotation Yrotation Zrotation
									JOINT LeftArm
									{
										OFFSET 9.308998 -2.777710 0.208600
										CHANNELS 3 Xrotation Yrotation Zrotation
										JOINT LeftForeArm
										{
											OFFSET 29.972298 0.000000 0.000000
											CHANNELS 3 Xrotation Yrotation Zrotation
											JOINT LeftHand
											{
												OFFSET 26.026505 0.000000 0.000000
												CHANNELS 3 Xrotation Yrotation Zrotation
												End Site
												{
													OFFSET 0 0 0
												}
											}
										}
									}
								}
							}
						}
						JOINT RightShoulder_virtual
						{
							OFFSET 0.000000 0.000000 0.000000
							CHANNELS 3 Xrotation Yrotation Zrotation
							JOINT RightShoulder
							{
								OFFSET -7.570500 7.247704 -3.868750
								CHANNELS 3 Xrotation Yrotation Zrotation
								JOINT RightShoulder_split
								{
									OFFSET -7.570500 7.247704 -3.868750
									CHANNELS 3 Xrotation Yrotation Zrotation
									JOINT RightArm
									{
										OFFSET -9.308998 -2.777710 0.208500
										CHANNELS 3 Xrotation Yrotation Zrotation
										JOINT RightForeArm
										{
											OFFSET -29.972300 0.000000 0.000000
											CHANNELS 3 Xrotation Yrotation Zrotation
											JOINT RightHand
											{
												OFFSET -26.026505 0.000000 0.000000
												CHANNELS 3 Xrotation Yrotation Zrotation
												End Site
												{
													OFFSET 0 0 0
												}
											}
										}
									}
								}
							}
						}
					}
				}
			}
		}
	}
}
MOTION
Frames: 5
Frame Time: 0.03333333
0.786504 92.839569 -12.528027 0.000000 0.000000 0.000000 2.440271 -23.912946 1.353285 -16.025980 26.646328 15.977797 18.198192 5.169826 -1.160630 -4.914777 8.480979 -15.757417 3.619469 -5.086915 -0.745955 0.000000 0.000000 0.000000 3.070688 -22.437894 1.344542 -9.190012 1.592746 -9.735425 11.342375 10.288132 4.864386 -8.150114 -3.364969 13.177582 5.229209 4.177967 -8.134439 0.000000 0.000000 0.000000 0.612741 -18.446601 0.109438 2.693951 0.079102 -1.872657 2.654317 -1.306394 2.601552 0.089273 -0.149557 0.015741 0.000000 0.000000 0.000000 5.759764 1.793968 3.190545 -6.647134 17.827478 -5.135232 -23.513952 -7.714895 -10.603426 0.000000 0.000000 0.000000 4.489167 0.277309 2.856765 1.488362 -7.160883 3.343194 7.153236 -4.323642 -0.255691 -62.657089 4.134782 -45.612789 12.422716 -57.243423 16.044753 0.000000 0.000000 0.000000 4.553447 -0.097452 3.040676 -0.919952 0.400910 5.637152 -0.444041 -0.969732 0.417997 -6.900307 -0.649485 69.780723 5.186842 14.689702 -1.758053 0.000000 0.000000 0.000000 
0.774180 92.832870 -12.506802 0.000000 0.000000 0.000000 2.484249 -23.815217 1.367022 -16.095961 26.714461 16.021336 18.243084 5.176719 -1.133390 -4.957268 8.455425 -15.736715 3.673695 -5.076276 -0.778362 0.000000 0.000000 0.000000 3.119624 -22.311206 1.341386 -9.224034 1.599197 -9.771561 11.391810 10.333866 4.862801 -8.136267 -3.287279 13.251831 5.256683 4.160824 -8.152093 0.000000 0.000000 0.000000 0.685426 -18.401474 0.141292 2.727500 0.081088 -1.871659 2.648207 -1.333250 2.598707 0.095602 -0.148711 0.025051 0.000000 0.000000 0.000000 5.770429 1.768196 3.202152 -6.630273 17.899274 -5.173025 -23.432064 -7.638564 -10.526541 0.000000 0.000000 0.000000 4.483839 0.261059 2.856191 1.467068 -7.147054 3.290801 7.209575 -4.330996 -0.060413 -62.784021 4.229357 -45.555149 12.580813 -57.195085 16.141496 0.000000 0.000000 0.000000 4.572611 -0.114617 3.042197 -0.954153 0.448582 5.749065 -0.588144 -1.057830 0.371419 -6.858018 -0.699934 69.712906 5.211996 14.612903 -1.762278 0.000000 0.000000 0.000000 
0.761478 92.784592 -12.492893 0.000000 0.000000 0.000000 2.574359 -23.620631 1.377728 -16.263920 26.685310 16.086612 18.365096 5.214122 -1.123347 -5.011257 8.418595 -15.698263 3.799840 -5.055090 -0.813268 0.000000 0.000000 0.000000 3.195332 -22.144208 1.341096 -9.315329 1.479567 -9.799792 11.533152 10.345653 4.866601 -8.194703 -3.237681 13.232056 5.347104 4.148048 -8.136895 0.000000 0.000000 0.000000 0.841477 -18.291363 0.188494 2.772336 0.100412 -1.837620 2.666525 -1.366729 2.590590 0.099073 -0.155764 0.026863 0.000000 0.000000 0.000000 5.819903 1.736193 3.203342 -6.655504 17.959936 -5.225854 -23.268761 -7.630926 -10.530036 0.000000 0.000000 0.000000 4.508368 0.237093 2.838636 1.439078 -7.155861 3.207704 7.301488 -4.284081 0.124967 -63.034573 4.435189 -45.418501 12.559281 -57.374053 16.076409 0.000000 0.000000 0.000000 4.624726 -0.137903 3.030033 -1.005114 0.475425 5.886124 -0.658896 -1.114626 0.332057 -6.802685 -0.767909 69.564712 5.273133 14.400581 -1.799198 0.000000 0.000000 0.000000 
0.753131 92.704437 -12.486607 0.000000 0.000000 0.000000 2.692956 -23.316729 1.385535 -16.505490 26.544009 16.148845 18.541696 5.268680 -1.129640 -5.070266 8.356302 -15.649504 3.937147 -5.026217 -0.827687 0.000000 0.000000 0.000000 3.289366 -21.931850 1.347721 -9.449537 1.244847 -9.826953 11.753371 10.340853 4.873139 -8.289651 -3.204617 13.160759 5.437005 4.144755 -8.097156 0.000000 0.000000 0.000000 1.047590 -18.115803 0.245758 2.808039 0.128417 -1.772873 2.699783 -1.402970 2.574887 0.093761 -0.159462 0.029643 0.000000 0.000000 0.000000 5.897424 1.699795 3.195000 -6.729972 18.021399 -5.305995 -23.058102 -7.694504 -10.614335 0.000000 0.000000 0.000000 4.560126 0.206696 2.808721 1.405178 -7.189911 3.121049 7.402906 -4.189840 0.283228 -63.373050 4.785304 -45.231842 12.439050 -57.756633 15.913292 0.000000 0.000000 0.000000 4.702635 -0.166937 3.005215 -1.067638 0.494875 6.036697 -0.639248 -1.097228 0.284512 -6.738500 -0.834913 69.391587 5.367522 14.067394 -1.862017 0.000000 0.000000 0.000000 
0.742705 92.606216 -12.492153 0.000000 0.000000 0.000000 2.824015 -22.900487 1.394479 -16.783725 26.279728 16.187774 18.748364 5.341438 -1.153628 -5.127946 8.260269 -15.576842 4.054275 -4.991742 -0.813513 0.000000 0.000000 0.000000 3.393900 -21.637191 1.363416 -9.594925 0.915092 -9.854861 12.029350 10.340894 4.879446 -8.413559 -3.173162 13.082263 5.469419 4.153169 -8.042048 0.000000 0.000000 0.000000 1.270773 -17.866791 0.309140 2.820745 0.151472 -1.684269 2.741659 -1.437608 2.549819 0.082635 -0.160165 0.033989 0.000000 0.000000 0.000000 5.991218 1.658393 3.179022 -6.829375 18.089457 -5.428675 -22.787630 -7.837657 -10.774006 0.000000 0.000000 0.000000 4.629643 0.172680 2.773495 1.370824 -7.241474 3.053197 7.540093 -4.065299 0.406761 -63.777417 5.323745 -45.036225 12.336277 -58.236474 15.737990 0.000000 0.000000 0.000000 4.802224 -0.201522 2.970028 -1.135531 0.505187 6.178135 -0.559722 -1.060391 0.262571 -6.678500 -0.907081 69.233345 5.489489 13.651038 -1.943316 0.000000 0.000000 0.000000 
